<?plantuml 1.2026.0?><svg xmlns="http://www.w3.org/2000/svg" xmlns:xlink="http://www.w3.org/1999/xlink" contentStyleType="text/css" data-diagram-type="ACTIVITY" height="1961px" preserveAspectRatio="none" style="width:2188px;height:1961px;background:#FFFFFF;" version="1.1" viewBox="0 0 2188 1961" width="2188px" zoomAndPan="magnify"><title>Aircraft Turnaround Orchestration System
11.4 &#8212; Eventos, alertas e interven&#231;&#245;es</title><defs/><g><g class="title" data-source-line="2"><text fill="#000000" font-family="sans-serif" font-size="14" font-weight="bold" lengthAdjust="spacing" textLength="281.6133" x="952.0829" y="34.5332">Aircraft Turnaround Orchestration System</text><text fill="#000000" font-family="sans-serif" font-size="14" font-weight="bold" lengthAdjust="spacing" textLength="258.7881" x="963.4955" y="52.1426">11.4 &#8212; Eventos, alertas e interven&#231;&#245;es</text></g><rect fill="none" height="18.8672" style="stroke:none;stroke-width:1;" width="2155.7791" x="15" y="68.0146"/><ellipse cx="280.5396" cy="101.8818" fill="#222222" rx="10" ry="10" style="stroke:#222222;stroke-width:1;"/><rect fill="#EEF4FA" height="76.6016" rx="12.5" ry="12.5" style="stroke:#34536E;stroke-width:0.5;" width="311.0059" x="125.0366" y="131.8818"/><text fill="#000000" font-family="sans-serif" font-size="15" lengthAdjust="spacing" textLength="291.0059" x="135.0366" y="157.4531">Receber registro aceito, altera&#231;&#227;o do plano,</text><text fill="#000000" font-family="sans-serif" font-size="15" lengthAdjust="spacing" textLength="246.0059" x="135.0366" y="176.3203">corre&#231;&#227;o da chegada, atualiza&#231;&#227;o de</text><text fill="#000000" font-family="sans-serif" font-size="15" lengthAdjust="spacing" textLength="169.2554" x="135.0366" y="195.1875">previs&#227;o ou temporizador</text><rect fill="#EEF4FA" height="57.7344" rx="12.5" ry="12.5" style="stroke:#34536E;stroke-width:0.5;" width="265.127" x="147.9761" y="279.917"/><text fill="#000000" font-family="sans-serif" font-size="15" lengthAdjust="spacing" textLength="245.127" x="157.9761" y="305.4883">Atualizar marcos e propagar estados</text><text fill="#000000" font-family="sans-serif" font-size="15" lengthAdjust="spacing" textLength="108.3398" x="157.9761" y="324.3555">(UC-B7, UC-B8)</text><polygon fill="#EEF4FA" points="166.7139,228.4834,394.3652,228.4834,406.3652,240.4834,394.3652,252.4834,166.7139,252.4834,154.7139,240.4834,166.7139,228.4834" style="stroke:#34536E;stroke-width:0.5;"/><text fill="#000000" font-family="sans-serif" font-size="15" lengthAdjust="spacing" textLength="31.6626" x="284.5396" y="268.0547">[sim]</text><text fill="#000000" font-family="sans-serif" font-size="15" lengthAdjust="spacing" textLength="227.6514" x="166.7139" y="246.6211">H&#225; registro de tarefa ou chegada?</text><text fill="#000000" font-family="sans-serif" font-size="15" lengthAdjust="spacing" textLength="33.3618" x="406.3652" y="237.1875">[n&#227;o]</text><polygon fill="#EEF4FA" points="280.5396,357.6514,292.5396,369.6514,280.5396,381.6514,268.5396,369.6514,280.5396,357.6514" style="stroke:#34536E;stroke-width:0.5;"/><rect fill="#EEF4FA" height="38.8672" rx="12.5" ry="12.5" style="stroke:#34536E;stroke-width:0.5;" width="278.4351" x="141.322" y="453.085"/><text fill="#000000" font-family="sans-serif" font-size="15" lengthAdjust="spacing" textLength="258.4351" x="151.322" y="478.6563">Preservar hist&#243;rico sem novo rec&#225;lculo</text><ellipse cx="280.5396" cy="529.0186" fill="none" rx="11" ry="11" style="stroke:#222222;stroke-width:1;"/><ellipse cx="280.5396" cy="529.0186" fill="#222222" rx="6" ry="6" style="stroke:#222222;stroke-width:1;"/><polygon fill="#EEF4FA" points="147.9492,401.6514,413.1299,401.6514,425.1299,413.6514,413.1299,425.6514,147.9492,425.6514,135.9492,413.6514,147.9492,401.6514" style="stroke:#34536E;stroke-width:0.5;"/><text fill="#000000" font-family="sans-serif" font-size="15" lengthAdjust="spacing" textLength="31.6626" x="284.5396" y="441.2227">[sim]</text><text fill="#000000" font-family="sans-serif" font-size="15" lengthAdjust="spacing" textLength="265.1807" x="147.9492" y="419.7891">Turnaround Liberado ou Fora de bloco?</text><text fill="#000000" font-family="sans-serif" font-size="15" lengthAdjust="spacing" textLength="33.3618" x="425.1299" y="410.3555">[n&#227;o]</text><rect fill="#EEF4FA" height="57.7344" rx="12.5" ry="12.5" style="stroke:#34536E;stroke-width:0.5;" width="324.3066" x="118.3862" y="582.0186"/><text fill="#000000" font-family="sans-serif" font-size="15" lengthAdjust="spacing" textLength="304.3066" x="128.3862" y="607.5898">Recalcular proje&#231;&#227;o, atraso e caminho cr&#237;tico;</text><text fill="#000000" font-family="sans-serif" font-size="15" lengthAdjust="spacing" textLength="215.061" x="128.3862" y="626.457">atualizar painel (UC-C3, UC-C1)</text><rect fill="#EEF4FA" height="57.7344" rx="12.5" ry="12.5" style="stroke:#34536E;stroke-width:0.5;" width="284.2285" x="138.4253" y="711.1865"/><text fill="#000000" font-family="sans-serif" font-size="15" lengthAdjust="spacing" textLength="264.2285" x="148.4253" y="736.7578">Emitir alerta conforme RF-C6 a RF-C10</text><text fill="#000000" font-family="sans-serif" font-size="15" lengthAdjust="spacing" textLength="206.77" x="148.4253" y="755.625">ou aviso de checagem RF-C11</text><rect fill="#EEF4FA" height="57.7344" rx="12.5" ry="12.5" style="stroke:#34536E;stroke-width:0.5;" width="164.2358" x="523.7759" y="1173.1953"/><text fill="#000000" font-family="sans-serif" font-size="15" lengthAdjust="spacing" textLength="110.0464" x="533.7759" y="1198.7666">Gravar exce&#231;&#227;o;</text><text fill="#000000" font-family="sans-serif" font-size="15" lengthAdjust="spacing" textLength="144.2358" x="533.7759" y="1217.6338">passar a Em exce&#231;&#227;o</text><polygon fill="#EEF4FA" points="465.8109,1121.7617,745.9769,1121.7617,757.9769,1133.7617,745.9769,1145.7617,465.8109,1145.7617,453.8109,1133.7617,465.8109,1121.7617" style="stroke:#34536E;stroke-width:0.5;"/><text fill="#000000" font-family="sans-serif" font-size="15" lengthAdjust="spacing" textLength="31.6626" x="609.8939" y="1161.333">[sim]</text><text fill="#000000" font-family="sans-serif" font-size="15" lengthAdjust="spacing" textLength="280.166" x="465.8109" y="1139.8994">Foi solicitada abertura de exce&#231;&#227;o v&#225;lida?</text><text fill="#000000" font-family="sans-serif" font-size="15" lengthAdjust="spacing" textLength="33.3618" x="757.9769" y="1130.4658">[n&#227;o]</text><polygon fill="#EEF4FA" points="605.8939,1250.9297,617.8939,1262.9297,605.8939,1274.9297,593.8939,1262.9297,605.8939,1250.9297" style="stroke:#34536E;stroke-width:0.5;"/><polygon fill="#EEF4FA" points="476.2332,1372.6641,735.5545,1372.6641,747.5545,1384.6641,735.5545,1396.6641,476.2332,1396.6641,464.2332,1384.6641,476.2332,1372.6641" style="stroke:#34536E;stroke-width:0.5;"/><text fill="#000000" font-family="sans-serif" font-size="15" lengthAdjust="spacing" textLength="259.3213" x="476.2332" y="1390.8018">A&#231;&#227;o v&#225;lida e efetivamente registrada?</text><text fill="#000000" font-family="sans-serif" font-size="15" lengthAdjust="spacing" textLength="31.6626" x="432.5706" y="1381.3682">[sim]</text><text fill="#000000" font-family="sans-serif" font-size="15" lengthAdjust="spacing" textLength="33.3618" x="747.5545" y="1381.3682">[n&#227;o]</text><rect fill="#EEF4FA" height="57.7344" rx="12.5" ry="12.5" style="stroke:#34536E;stroke-width:0.5;" width="171.7358" x="368.3653" y="1406.6641"/><text fill="#000000" font-family="sans-serif" font-size="15" lengthAdjust="spacing" textLength="151.7358" x="378.3653" y="1432.2354">Gravar autor e hor&#225;rio;</text><text fill="#000000" font-family="sans-serif" font-size="15" lengthAdjust="spacing" textLength="97.5439" x="378.3653" y="1451.1025">encerrar alerta</text><rect fill="#EEF4FA" height="38.8672" rx="12.5" ry="12.5" style="stroke:#34536E;stroke-width:0.5;" width="273.4473" x="620.8309" y="1406.6641"/><text fill="#000000" font-family="sans-serif" font-size="15" lengthAdjust="spacing" textLength="253.4473" x="630.8309" y="1432.2354">Recusar registro; manter alerta aberto</text><polygon fill="#EEF4FA" points="605.8939,1470.3984,617.8939,1482.3984,605.8939,1494.3984,593.8939,1482.3984,605.8939,1470.3984" style="stroke:#34536E;stroke-width:0.5;"/><polygon fill="#EEF4FA" points="162.9602,659.7529,398.1189,659.7529,410.1189,671.7529,398.1189,683.7529,162.9602,683.7529,150.9602,671.7529,162.9602,659.7529" style="stroke:#34536E;stroke-width:0.5;"/><text fill="#000000" font-family="sans-serif" font-size="15" lengthAdjust="spacing" textLength="31.6626" x="284.5396" y="699.3242">[sim]</text><text fill="#000000" font-family="sans-serif" font-size="15" lengthAdjust="spacing" textLength="235.1587" x="162.9602" y="677.8906">Gatilho de alerta ou aviso atingido?</text><text fill="#000000" font-family="sans-serif" font-size="15" lengthAdjust="spacing" textLength="33.3618" x="117.5984" y="668.457">[n&#227;o]</text><polygon fill="#EEF4FA" points="280.5396,1548.3984,292.5396,1560.3984,280.5396,1572.3984,268.5396,1560.3984,280.5396,1548.3984" style="stroke:#34536E;stroke-width:0.5;"/><rect fill="#EEF4FA" height="38.8672" rx="12.5" ry="12.5" style="stroke:#34536E;stroke-width:0.5;" width="235.1196" x="162.9797" y="1643.832"/><text fill="#000000" font-family="sans-serif" font-size="15" lengthAdjust="spacing" textLength="215.1196" x="172.9797" y="1669.4033">Solicitar atualiza&#231;&#227;o da previs&#227;o</text><polygon fill="#EEF4FA" points="93.3618,1592.3984,467.7173,1592.3984,479.7173,1604.3984,467.7173,1616.3984,93.3618,1616.3984,81.3618,1604.3984,93.3618,1592.3984" style="stroke:#34536E;stroke-width:0.5;"/><text fill="#000000" font-family="sans-serif" font-size="15" lengthAdjust="spacing" textLength="31.6626" x="284.5396" y="1631.9697">[sim]</text><text fill="#000000" font-family="sans-serif" font-size="15" lengthAdjust="spacing" textLength="374.3555" x="93.3618" y="1610.5361">Proje&#231;&#227;o difere do TOBT vigente em pelo menos 5 min?</text><text fill="#000000" font-family="sans-serif" font-size="15" lengthAdjust="spacing" textLength="33.3618" x="48" y="1601.1025">[n&#227;o]</text><polygon fill="#EEF4FA" points="280.5396,1788.5,292.5396,1800.5,280.5396,1812.5,268.5396,1800.5,280.5396,1788.5" style="stroke:#34536E;stroke-width:0.5;"/><path d="M423.9368,1822.5 L423.9368,1861.2344 L403.9368,1865.2344 L423.9368,1869.2344 L423.9368,1907.9688 A0,0 0 0 0 423.9368,1907.9688 L748.4377,1907.9688 A0,0 0 0 0 748.4377,1907.9688 L748.4377,1832.5 L738.4377,1822.5 L423.9368,1822.5 A0,0 0 0 0 423.9368,1822.5" fill="#FEFFDD" style="stroke:#181818;stroke-width:0.5;"/><path d="M738.4377,1822.5 L738.4377,1832.5 L748.4377,1832.5 L738.4377,1822.5" fill="#FEFFDD" style="stroke:#181818;stroke-width:0.5;"/><text fill="#000000" font-family="sans-serif" font-size="15" lengthAdjust="spacing" textLength="290.1636" x="429.9368" y="1843.0713">Altera&#231;&#245;es recusadas n&#227;o geram mudan&#231;a.</text><text fill="#000000" font-family="sans-serif" font-size="15" lengthAdjust="spacing" textLength="295.979" x="429.9368" y="1861.9385">Replanejar: sem ciclos; somente tarefas n&#227;o</text><text fill="#000000" font-family="sans-serif" font-size="15" lengthAdjust="spacing" textLength="303.501" x="429.9368" y="1880.8057">iniciadas; respeitar pol&#237;tica de abastecimento.</text><text fill="#000000" font-family="sans-serif" font-size="15" lengthAdjust="spacing" textLength="285.1025" x="429.9368" y="1899.6729">Exce&#231;&#227;o s&#243; encerra com solu&#231;&#227;o (UC-D5).</text><rect fill="#EEF4FA" height="57.7344" rx="12.5" ry="12.5" style="stroke:#34536E;stroke-width:0.5;" width="246.7944" x="157.1423" y="1836.3672"/><text fill="#000000" font-family="sans-serif" font-size="15" lengthAdjust="spacing" textLength="226.7944" x="167.1423" y="1861.9385">Processar novos eventos gerados</text><text fill="#000000" font-family="sans-serif" font-size="15" lengthAdjust="spacing" textLength="108.3765" x="167.1423" y="1880.8057">no pr&#243;ximo ciclo</text><ellipse cx="280.5396" cy="1938.9688" fill="none" rx="11" ry="11" style="stroke:#222222;stroke-width:1;"/><ellipse cx="280.5396" cy="1938.9688" fill="#222222" rx="6" ry="6" style="stroke:#222222;stroke-width:1;"/><line style="stroke:#000000;stroke-width:1.5;" x1="15" x2="15" y1="68.0146" y2="1949.9688"/><polygon fill="#EEF4FA" points="1247.965,788.9209,1399.7228,788.9209,1411.7228,800.9209,1399.7228,812.9209,1247.965,812.9209,1235.965,800.9209,1247.965,788.9209" style="stroke:#34536E;stroke-width:0.5;"/><text fill="#000000" font-family="sans-serif" font-size="15" lengthAdjust="spacing" textLength="151.7578" x="1247.965" y="807.0586">&#201; aviso de checagem?</text><text fill="#000000" font-family="sans-serif" font-size="15" lengthAdjust="spacing" textLength="31.6626" x="1204.3024" y="797.625">[sim]</text><text fill="#000000" font-family="sans-serif" font-size="15" lengthAdjust="spacing" textLength="33.3618" x="1411.7228" y="797.625">[n&#227;o]</text><rect fill="#EEF4FA" height="57.7344" rx="12.5" ry="12.5" style="stroke:#34536E;stroke-width:0.5;" width="208.4229" x="904.2781" y="832.9209"/><text fill="#000000" font-family="sans-serif" font-size="15" lengthAdjust="spacing" textLength="188.4229" x="914.2781" y="858.4922">Conferir prazo com equipes;</text><text fill="#000000" font-family="sans-serif" font-size="15" lengthAdjust="spacing" textLength="188.3789" x="914.2781" y="877.3594">registrar checagem (UC-C6)</text><rect fill="#EEF4FA" height="57.7344" rx="12.5" ry="12.5" style="stroke:#34536E;stroke-width:0.5;" width="240.9644" x="1528.716" y="832.9209"/><text fill="#000000" font-family="sans-serif" font-size="15" lengthAdjust="spacing" textLength="220.9644" x="1538.716" y="858.4922">Consultar alerta e linha do tempo</text><text fill="#000000" font-family="sans-serif" font-size="15" lengthAdjust="spacing" textLength="109.9951" x="1538.716" y="877.3594">(UC-C5, UC-C2)</text><polygon fill="#EEF4FA" points="1594.1603,910.6553,1704.236,910.6553,1716.236,922.6553,1704.236,934.6553,1594.1603,934.6553,1582.1603,922.6553,1594.1603,910.6553" style="stroke:#34536E;stroke-width:0.5;"/><text fill="#000000" font-family="sans-serif" font-size="15" lengthAdjust="spacing" textLength="110.0757" x="1594.1603" y="928.793">A&#231;&#227;o escolhida?</text><rect fill="#EEF4FA" height="57.7344" rx="12.5" ry="12.5" style="stroke:#34536E;stroke-width:0.5;" width="294.3506" x="1122.701" y="981.1602"/><text fill="#000000" font-family="sans-serif" font-size="15" lengthAdjust="spacing" textLength="274.3506" x="1132.701" y="1006.7314">Consultar operador dispon&#237;vel da equipe;</text><text fill="#000000" font-family="sans-serif" font-size="15" lengthAdjust="spacing" textLength="254.2017" x="1132.701" y="1025.5986">reatribuir com motivo (UC-D8, UC-D2)</text><rect fill="#EEF4FA" height="76.6016" rx="12.5" ry="12.5" style="stroke:#34536E;stroke-width:0.5;" width="284.3018" x="1437.0516" y="981.1602"/><text fill="#000000" font-family="sans-serif" font-size="15" lengthAdjust="spacing" textLength="250.1294" x="1447.0516" y="1006.7314">Alterar tarefas n&#227;o iniciadas ou incluir</text><text fill="#000000" font-family="sans-serif" font-size="15" lengthAdjust="spacing" textLength="264.3018" x="1447.0516" y="1025.5986">servi&#231;o sob demanda com respons&#225;vel,</text><text fill="#000000" font-family="sans-serif" font-size="15" lengthAdjust="spacing" textLength="262.6318" x="1447.0516" y="1044.4658">janela, depend&#234;ncias e motivo (UC-D7)</text><rect fill="#EEF4FA" height="57.7344" rx="12.5" ry="12.5" style="stroke:#34536E;stroke-width:0.5;" width="175.061" x="1741.3533" y="981.1602"/><text fill="#000000" font-family="sans-serif" font-size="15" lengthAdjust="spacing" textLength="155.061" x="1751.3533" y="1006.7314">Atualizar TOBT vigente</text><text fill="#000000" font-family="sans-serif" font-size="15" lengthAdjust="spacing" textLength="55.8252" x="1751.3533" y="1025.5986">(UC-D6)</text><rect fill="#EEF4FA" height="57.7344" rx="12.5" ry="12.5" style="stroke:#34536E;stroke-width:0.5;" width="200.9155" x="1964.7798" y="981.1602"/><text fill="#000000" font-family="sans-serif" font-size="15" lengthAdjust="spacing" textLength="180.9155" x="1974.7798" y="1006.7314">Informar causa e descri&#231;&#227;o</text><text fill="#000000" font-family="sans-serif" font-size="15" lengthAdjust="spacing" textLength="136.7139" x="1974.7798" y="1025.5986">da exce&#231;&#227;o (UC-D1)</text><polygon fill="#EEF4FA" points="1649.1982,1077.7617,1649.1982,1077.7617,1661.1982,1089.7617,1649.1982,1101.7617,1649.1982,1101.7617,1637.1982,1089.7617,1649.1982,1077.7617" style="stroke:#34536E;stroke-width:0.5;"/><rect fill="#EEF4FA" height="57.7344" rx="12.5" ry="12.5" style="stroke:#34536E;stroke-width:0.5;" width="166.7407" x="1565.8278" y="1294.9297"/><text fill="#000000" font-family="sans-serif" font-size="15" lengthAdjust="spacing" textLength="146.7407" x="1575.8278" y="1320.501">Informar a&#231;&#227;o tomada</text><text fill="#000000" font-family="sans-serif" font-size="15" lengthAdjust="spacing" textLength="55.8252" x="1575.8278" y="1339.3682">(UC-D3)</text><polygon fill="#EEF4FA" points="1323.8439,1504.3984,1335.8439,1516.3984,1323.8439,1528.3984,1311.8439,1516.3984,1323.8439,1504.3984" style="stroke:#34536E;stroke-width:0.5;"/><rect fill="#EEF4FA" height="57.7344" rx="12.5" ry="12.5" style="stroke:#34536E;stroke-width:0.5;" width="256.7407" x="1195.4735" y="1710.7656"/><text fill="#000000" font-family="sans-serif" font-size="15" lengthAdjust="spacing" textLength="159.2285" x="1205.4735" y="1736.3369">Atualizar TOBT vigente;</text><text fill="#000000" font-family="sans-serif" font-size="15" lengthAdjust="spacing" textLength="236.7407" x="1205.4735" y="1755.2041">preservar TOBT planejado (UC-D6)</text><line style="stroke:#000000;stroke-width:1.5;" x1="898.2781" x2="898.2781" y1="68.0146" y2="1949.9688"/><line style="stroke:#000000;stroke-width:1.5;" x1="2169.6954" x2="2169.6954" y1="68.0146" y2="1949.9688"/><line style="stroke:#181818;stroke-width:1;" x1="280.5396" x2="280.5396" y1="111.8818" y2="131.8818"/><polygon fill="#181818" points="276.5396,121.8818,280.5396,131.8818,284.5396,121.8818,280.5396,125.8818" style="stroke:#181818;stroke-width:1;"/><line style="stroke:#181818;stroke-width:1;" x1="280.5396" x2="280.5396" y1="252.4834" y2="279.917"/><polygon fill="#181818" points="276.5396,269.917,280.5396,279.917,284.5396,269.917,280.5396,273.917" style="stroke:#181818;stroke-width:1;"/><line style="stroke:#181818;stroke-width:1;" x1="406.3652" x2="423.103" y1="240.4834" y2="240.4834"/><polygon fill="#181818" points="419.103,298.7842,423.103,308.7842,427.103,298.7842,423.103,302.7842" style="stroke:#181818;stroke-width:1;"/><line style="stroke:#181818;stroke-width:1;" x1="423.103" x2="423.103" y1="240.4834" y2="369.6514"/><line style="stroke:#181818;stroke-width:1;" x1="423.103" x2="292.5396" y1="369.6514" y2="369.6514"/><polygon fill="#181818" points="302.5396,365.6514,292.5396,369.6514,302.5396,373.6514,298.5396,369.6514" style="stroke:#181818;stroke-width:1;"/><line style="stroke:#181818;stroke-width:1;" x1="280.5396" x2="280.5396" y1="337.6514" y2="357.6514"/><polygon fill="#181818" points="276.5396,347.6514,280.5396,357.6514,284.5396,347.6514,280.5396,351.6514" style="stroke:#181818;stroke-width:1;"/><line style="stroke:#181818;stroke-width:1;" x1="280.5396" x2="280.5396" y1="208.4834" y2="228.4834"/><polygon fill="#181818" points="276.5396,218.4834,280.5396,228.4834,284.5396,218.4834,280.5396,222.4834" style="stroke:#181818;stroke-width:1;"/><line style="stroke:#181818;stroke-width:1;" x1="280.5396" x2="280.5396" y1="491.9521" y2="518.0186"/><polygon fill="#181818" points="276.5396,508.0186,280.5396,518.0186,284.5396,508.0186,280.5396,512.0186" style="stroke:#181818;stroke-width:1;"/><line style="stroke:#181818;stroke-width:1;" x1="280.5396" x2="280.5396" y1="425.6514" y2="453.085"/><polygon fill="#181818" points="276.5396,443.085,280.5396,453.085,284.5396,443.085,280.5396,447.085" style="stroke:#181818;stroke-width:1;"/><line style="stroke:#181818;stroke-width:1;" x1="425.1299" x2="437.1299" y1="413.6514" y2="413.6514"/><polygon fill="#181818" points="433.1299,488.0186,437.1299,498.0186,441.1299,488.0186,437.1299,492.0186" style="stroke:#181818;stroke-width:1;"/><line style="stroke:#181818;stroke-width:1;" x1="437.1299" x2="437.1299" y1="413.6514" y2="562.0186"/><line style="stroke:#181818;stroke-width:1;" x1="437.1299" x2="280.5396" y1="562.0186" y2="562.0186"/><line style="stroke:#181818;stroke-width:1;" x1="280.5396" x2="280.5396" y1="562.0186" y2="582.0186"/><polygon fill="#181818" points="276.5396,572.0186,280.5396,582.0186,284.5396,572.0186,280.5396,576.0186" style="stroke:#181818;stroke-width:1;"/><line style="stroke:#181818;stroke-width:1;" x1="280.5396" x2="280.5396" y1="381.6514" y2="401.6514"/><polygon fill="#181818" points="276.5396,391.6514,280.5396,401.6514,284.5396,391.6514,280.5396,395.6514" style="stroke:#181818;stroke-width:1;"/><line style="stroke:#181818;stroke-width:1;" x1="605.8939" x2="605.8939" y1="1145.7617" y2="1173.1953"/><polygon fill="#181818" points="601.8939,1163.1953,605.8939,1173.1953,609.8939,1163.1953,605.8939,1167.1953" style="stroke:#181818;stroke-width:1;"/><line style="stroke:#181818;stroke-width:1;" x1="757.9769" x2="769.9769" y1="1133.7617" y2="1133.7617"/><polygon fill="#181818" points="765.9769,1192.0625,769.9769,1202.0625,773.9769,1192.0625,769.9769,1196.0625" style="stroke:#181818;stroke-width:1;"/><line style="stroke:#181818;stroke-width:1;" x1="769.9769" x2="769.9769" y1="1133.7617" y2="1262.9297"/><line style="stroke:#181818;stroke-width:1;" x1="769.9769" x2="617.8939" y1="1262.9297" y2="1262.9297"/><polygon fill="#181818" points="627.8939,1258.9297,617.8939,1262.9297,627.8939,1266.9297,623.8939,1262.9297" style="stroke:#181818;stroke-width:1;"/><line style="stroke:#181818;stroke-width:1;" x1="605.8939" x2="605.8939" y1="1230.9297" y2="1250.9297"/><polygon fill="#181818" points="601.8939,1240.9297,605.8939,1250.9297,609.8939,1240.9297,605.8939,1244.9297" style="stroke:#181818;stroke-width:1;"/><line style="stroke:#181818;stroke-width:1;" x1="464.2332" x2="454.2332" y1="1384.6641" y2="1384.6641"/><line style="stroke:#181818;stroke-width:1;" x1="454.2332" x2="454.2332" y1="1384.6641" y2="1406.6641"/><polygon fill="#181818" points="450.2332,1396.6641,454.2332,1406.6641,458.2332,1396.6641,454.2332,1400.6641" style="stroke:#181818;stroke-width:1;"/><line style="stroke:#181818;stroke-width:1;" x1="747.5545" x2="757.5545" y1="1384.6641" y2="1384.6641"/><line style="stroke:#181818;stroke-width:1;" x1="757.5545" x2="757.5545" y1="1384.6641" y2="1406.6641"/><polygon fill="#181818" points="753.5545,1396.6641,757.5545,1406.6641,761.5545,1396.6641,757.5545,1400.6641" style="stroke:#181818;stroke-width:1;"/><line style="stroke:#181818;stroke-width:1;" x1="454.2332" x2="454.2332" y1="1464.3984" y2="1482.3984"/><line style="stroke:#181818;stroke-width:1;" x1="454.2332" x2="593.8939" y1="1482.3984" y2="1482.3984"/><polygon fill="#181818" points="583.8939,1478.3984,593.8939,1482.3984,583.8939,1486.3984,587.8939,1482.3984" style="stroke:#181818;stroke-width:1;"/><line style="stroke:#181818;stroke-width:1;" x1="757.5545" x2="757.5545" y1="1445.5313" y2="1482.3984"/><line style="stroke:#181818;stroke-width:1;" x1="757.5545" x2="617.8939" y1="1482.3984" y2="1482.3984"/><polygon fill="#181818" points="627.8939,1478.3984,617.8939,1482.3984,627.8939,1486.3984,623.8939,1482.3984" style="stroke:#181818;stroke-width:1;"/><line style="stroke:#181818;stroke-width:1;" x1="280.5396" x2="280.5396" y1="683.7529" y2="711.1865"/><polygon fill="#181818" points="276.5396,701.1865,280.5396,711.1865,284.5396,701.1865,280.5396,705.1865" style="stroke:#181818;stroke-width:1;"/><line style="stroke:#181818;stroke-width:1;" x1="150.9602" x2="34" y1="671.7529" y2="671.7529"/><polygon fill="#181818" points="30,1075.3945,34,1085.3945,38,1075.3945,34,1079.3945" style="stroke:#181818;stroke-width:1;"/><line style="stroke:#181818;stroke-width:1;" x1="34" x2="34" y1="671.7529" y2="1560.3984"/><line style="stroke:#181818;stroke-width:1;" x1="34" x2="268.5396" y1="1560.3984" y2="1560.3984"/><polygon fill="#181818" points="258.5396,1556.3984,268.5396,1560.3984,258.5396,1564.3984,262.5396,1560.3984" style="stroke:#181818;stroke-width:1;"/><line style="stroke:#181818;stroke-width:1;" x1="280.5396" x2="280.5396" y1="639.7529" y2="659.7529"/><polygon fill="#181818" points="276.5396,649.7529,280.5396,659.7529,284.5396,649.7529,280.5396,653.7529" style="stroke:#181818;stroke-width:1;"/><line style="stroke:#181818;stroke-width:1;" x1="280.5396" x2="280.5396" y1="1616.3984" y2="1643.832"/><polygon fill="#181818" points="276.5396,1633.832,280.5396,1643.832,284.5396,1633.832,280.5396,1637.832" style="stroke:#181818;stroke-width:1;"/><line style="stroke:#181818;stroke-width:1;" x1="81.3618" x2="69.3618" y1="1604.3984" y2="1604.3984"/><polygon fill="#181818" points="65.3618,1692.6992,69.3618,1702.6992,73.3618,1692.6992,69.3618,1696.6992" style="stroke:#181818;stroke-width:1;"/><line style="stroke:#181818;stroke-width:1;" x1="69.3618" x2="69.3618" y1="1604.3984" y2="1800.5"/><line style="stroke:#181818;stroke-width:1;" x1="69.3618" x2="268.5396" y1="1800.5" y2="1800.5"/><polygon fill="#181818" points="258.5396,1796.5,268.5396,1800.5,258.5396,1804.5,262.5396,1800.5" style="stroke:#181818;stroke-width:1;"/><line style="stroke:#181818;stroke-width:1;" x1="280.5396" x2="280.5396" y1="1572.3984" y2="1592.3984"/><polygon fill="#181818" points="276.5396,1582.3984,280.5396,1592.3984,284.5396,1582.3984,280.5396,1586.3984" style="stroke:#181818;stroke-width:1;"/><line style="stroke:#181818;stroke-width:1;" x1="280.5396" x2="280.5396" y1="1812.5" y2="1836.3672"/><polygon fill="#181818" points="276.5396,1826.3672,280.5396,1836.3672,284.5396,1826.3672,280.5396,1830.3672" style="stroke:#181818;stroke-width:1;"/><line style="stroke:#181818;stroke-width:1;" x1="280.5396" x2="280.5396" y1="1894.1016" y2="1927.9688"/><polygon fill="#181818" points="276.5396,1917.9688,280.5396,1927.9688,284.5396,1917.9688,280.5396,1921.9688" style="stroke:#181818;stroke-width:1;"/><line style="stroke:#181818;stroke-width:1;" x1="1582.1603" x2="1269.8763" y1="922.6553" y2="922.6553"/><line style="stroke:#181818;stroke-width:1;" x1="1269.8763" x2="1269.8763" y1="922.6553" y2="981.1602"/><polygon fill="#181818" points="1265.8763,971.1602,1269.8763,981.1602,1273.8763,971.1602,1269.8763,975.1602" style="stroke:#181818;stroke-width:1;"/><text fill="#000000" font-family="sans-serif" font-size="15" lengthAdjust="spacing" textLength="67.522" x="1269.8763" y="958.6602">[reatribuir]</text><line style="stroke:#181818;stroke-width:1;" x1="1716.236" x2="2065.2376" y1="922.6553" y2="922.6553"/><line style="stroke:#181818;stroke-width:1;" x1="2065.2376" x2="2065.2376" y1="922.6553" y2="981.1602"/><polygon fill="#181818" points="2061.2376,971.1602,2065.2376,981.1602,2069.2376,971.1602,2065.2376,975.1602" style="stroke:#181818;stroke-width:1;"/><text fill="#000000" font-family="sans-serif" font-size="15" lengthAdjust="spacing" textLength="98.3789" x="2065.2376" y="958.6602">[abrir exce&#231;&#227;o]</text><line style="stroke:#181818;stroke-width:1;" x1="1649.1982" x2="1649.1982" y1="934.6553" y2="950.5667"/><line style="stroke:#181818;stroke-width:1;" x1="1649.1982" x2="1579.2025" y1="950.5667" y2="950.5667"/><line style="stroke:#181818;stroke-width:1;" x1="1579.2025" x2="1579.2025" y1="950.5667" y2="981.1602"/><polygon fill="#181818" points="1575.2025,971.1602,1579.2025,981.1602,1583.2025,971.1602,1579.2025,975.1602" style="stroke:#181818;stroke-width:1;"/><text fill="#000000" font-family="sans-serif" font-size="15" lengthAdjust="spacing" textLength="75.0439" x="1579.2025" y="959.6602">[replanejar]</text><line style="stroke:#181818;stroke-width:1;" x1="1828.8839" x2="1828.8839" y1="922.6553" y2="981.1602"/><polygon fill="#181818" points="1824.8839,971.1602,1828.8839,981.1602,1832.8839,971.1602,1828.8839,975.1602" style="stroke:#181818;stroke-width:1;"/><text fill="#000000" font-family="sans-serif" font-size="15" lengthAdjust="spacing" textLength="125.896" x="1828.8839" y="953.6602">[atualizar previs&#227;o]</text><line style="stroke:#181818;stroke-width:1;" x1="1269.8763" x2="1269.8763" y1="1038.8945" y2="1089.7617"/><line style="stroke:#181818;stroke-width:1;" x1="1269.8763" x2="1637.1982" y1="1089.7617" y2="1089.7617"/><polygon fill="#181818" points="1627.1982,1085.7617,1637.1982,1089.7617,1627.1982,1093.7617,1631.1982,1089.7617" style="stroke:#181818;stroke-width:1;"/><line style="stroke:#181818;stroke-width:1;" x1="2065.2376" x2="2065.2376" y1="1038.8945" y2="1089.7617"/><line style="stroke:#181818;stroke-width:1;" x1="2065.2376" x2="1661.1982" y1="1089.7617" y2="1089.7617"/><polygon fill="#181818" points="1671.1982,1085.7617,1661.1982,1089.7617,1671.1982,1093.7617,1667.1982,1089.7617" style="stroke:#181818;stroke-width:1;"/><line style="stroke:#181818;stroke-width:1;" x1="1579.2025" x2="1579.2025" y1="1057.7617" y2="1062.7617"/><line style="stroke:#181818;stroke-width:1;" x1="1579.2025" x2="1649.1982" y1="1062.7617" y2="1062.7617"/><line style="stroke:#181818;stroke-width:1;" x1="1649.1982" x2="1649.1982" y1="1062.7617" y2="1077.7617"/><polygon fill="#181818" points="1645.1982,1067.7617,1649.1982,1077.7617,1653.1982,1067.7617,1649.1982,1071.7617" style="stroke:#181818;stroke-width:1;"/><line style="stroke:#181818;stroke-width:1;" x1="1828.8839" x2="1828.8839" y1="1038.8945" y2="1089.7617"/><polygon fill="#181818" points="1824.8839,1079.7617,1828.8839,1089.7617,1832.8839,1079.7617,1828.8839,1083.7617" style="stroke:#181818;stroke-width:1;"/><line style="stroke:#181818;stroke-width:1;" x1="1649.1982" x2="1649.1982" y1="890.6553" y2="910.6553"/><polygon fill="#181818" points="1645.1982,900.6553,1649.1982,910.6553,1653.1982,900.6553,1649.1982,904.6553" style="stroke:#181818;stroke-width:1;"/><line style="stroke:#181818;stroke-width:1;" x1="1235.965" x2="1008.4896" y1="800.9209" y2="800.9209"/><line style="stroke:#181818;stroke-width:1;" x1="1008.4896" x2="1008.4896" y1="800.9209" y2="832.9209"/><polygon fill="#181818" points="1004.4896,822.9209,1008.4896,832.9209,1012.4896,822.9209,1008.4896,826.9209" style="stroke:#181818;stroke-width:1;"/><line style="stroke:#181818;stroke-width:1;" x1="1411.7228" x2="1649.1982" y1="800.9209" y2="800.9209"/><line style="stroke:#181818;stroke-width:1;" x1="1649.1982" x2="1649.1982" y1="800.9209" y2="832.9209"/><polygon fill="#181818" points="1645.1982,822.9209,1649.1982,832.9209,1653.1982,822.9209,1649.1982,826.9209" style="stroke:#181818;stroke-width:1;"/><line style="stroke:#181818;stroke-width:1;" x1="1008.4896" x2="1008.4896" y1="890.6553" y2="1516.3984"/><line style="stroke:#181818;stroke-width:1;" x1="1008.4896" x2="1311.8439" y1="1516.3984" y2="1516.3984"/><polygon fill="#181818" points="1301.8439,1512.3984,1311.8439,1516.3984,1301.8439,1520.3984,1305.8439,1516.3984" style="stroke:#181818;stroke-width:1;"/><line style="stroke:#181818;stroke-width:1;" x1="1649.1982" x2="1649.1982" y1="1101.7617" y2="1106.7617"/><line style="stroke:#181818;stroke-width:1;" x1="1649.1982" x2="605.8939" y1="1106.7617" y2="1106.7617"/><line style="stroke:#181818;stroke-width:1;" x1="605.8939" x2="605.8939" y1="1106.7617" y2="1121.7617"/><polygon fill="#181818" points="601.8939,1111.7617,605.8939,1121.7617,609.8939,1111.7617,605.8939,1115.7617" style="stroke:#181818;stroke-width:1;"/><line style="stroke:#181818;stroke-width:1;" x1="605.8939" x2="605.8939" y1="1274.9297" y2="1279.9297"/><line style="stroke:#181818;stroke-width:1;" x1="605.8939" x2="1649.1982" y1="1279.9297" y2="1279.9297"/><line style="stroke:#181818;stroke-width:1;" x1="1649.1982" x2="1649.1982" y1="1279.9297" y2="1294.9297"/><polygon fill="#181818" points="1645.1982,1284.9297,1649.1982,1294.9297,1653.1982,1284.9297,1649.1982,1288.9297" style="stroke:#181818;stroke-width:1;"/><line style="stroke:#181818;stroke-width:1;" x1="1649.1982" x2="1649.1982" y1="1352.6641" y2="1357.6641"/><line style="stroke:#181818;stroke-width:1;" x1="1649.1982" x2="605.8939" y1="1357.6641" y2="1357.6641"/><line style="stroke:#181818;stroke-width:1;" x1="605.8939" x2="605.8939" y1="1357.6641" y2="1372.6641"/><polygon fill="#181818" points="601.8939,1362.6641,605.8939,1372.6641,609.8939,1362.6641,605.8939,1366.6641" style="stroke:#181818;stroke-width:1;"/><line style="stroke:#181818;stroke-width:1;" x1="605.8939" x2="605.8939" y1="1494.3984" y2="1498.3984"/><line style="stroke:#181818;stroke-width:1;" x1="605.8939" x2="1353.8439" y1="1498.3984" y2="1498.3984"/><line style="stroke:#181818;stroke-width:1;" x1="1353.8439" x2="1353.8439" y1="1498.3984" y2="1516.3984"/><line style="stroke:#181818;stroke-width:1;" x1="1353.8439" x2="1335.8439" y1="1516.3984" y2="1516.3984"/><polygon fill="#181818" points="1345.8439,1512.3984,1335.8439,1516.3984,1345.8439,1520.3984,1341.8439,1516.3984" style="stroke:#181818;stroke-width:1;"/><line style="stroke:#181818;stroke-width:1;" x1="280.5396" x2="280.5396" y1="768.9209" y2="773.9209"/><line style="stroke:#181818;stroke-width:1;" x1="280.5396" x2="1323.8439" y1="773.9209" y2="773.9209"/><line style="stroke:#181818;stroke-width:1;" x1="1323.8439" x2="1323.8439" y1="773.9209" y2="788.9209"/><polygon fill="#181818" points="1319.8439,778.9209,1323.8439,788.9209,1327.8439,778.9209,1323.8439,782.9209" style="stroke:#181818;stroke-width:1;"/><line style="stroke:#181818;stroke-width:1;" x1="1323.8439" x2="1323.8439" y1="1528.3984" y2="1534.6816"/><line style="stroke:#181818;stroke-width:1;" x1="1323.8439" x2="280.5396" y1="1534.6816" y2="1534.6816"/><line style="stroke:#181818;stroke-width:1;" x1="280.5396" x2="280.5396" y1="1534.6816" y2="1548.3984"/><polygon fill="#181818" points="276.5396,1538.3984,280.5396,1548.3984,284.5396,1538.3984,280.5396,1542.3984" style="stroke:#181818;stroke-width:1;"/><line style="stroke:#181818;stroke-width:1;" x1="280.5396" x2="280.5396" y1="1682.6992" y2="1693.2656"/><line style="stroke:#181818;stroke-width:1;" x1="280.5396" x2="1323.8439" y1="1693.2656" y2="1693.2656"/><line style="stroke:#181818;stroke-width:1;" x1="1323.8439" x2="1323.8439" y1="1693.2656" y2="1710.7656"/><polygon fill="#181818" points="1319.8439,1700.7656,1323.8439,1710.7656,1327.8439,1700.7656,1323.8439,1704.7656" style="stroke:#181818;stroke-width:1;"/><line style="stroke:#181818;stroke-width:1;" x1="1323.8439" x2="1323.8439" y1="1768.5" y2="1774.7832"/><line style="stroke:#181818;stroke-width:1;" x1="1323.8439" x2="280.5396" y1="1774.7832" y2="1774.7832"/><line style="stroke:#181818;stroke-width:1;" x1="280.5396" x2="280.5396" y1="1774.7832" y2="1788.5"/><polygon fill="#181818" points="276.5396,1778.5,280.5396,1788.5,284.5396,1778.5,280.5396,1782.5" style="stroke:#181818;stroke-width:1;"/><text fill="#000000" font-family="sans-serif" font-size="15" lengthAdjust="spacing" textLength="117.561" x="397.8586" y="83.5859">Motor de Eventos</text><text fill="#000000" font-family="sans-serif" font-size="15" lengthAdjust="spacing" textLength="190.1294" x="1438.9221" y="83.5859">Coordenador de Turnaround</text><?plantuml-src XLPDRzj64BthLspHYmKaHbN7Jc0T2aMHqW1j4zXkBrKFe-LAseJSONUNoWTywBNt_W6ZXm05SZBw2_XF-alwPadAjACa9q7SvSoyDs_UyAlIqxeWLGNpY_7HQigVhHIxGRGnDsfYlVQqYkgYyeuyLovJpxtUc10zHSjEdRyDqHGBDneTFb3__V6NccsDYnpkASeHa88oohfeF1xNx-j_JHY4LzQLvAbGIzAlrYdgb7FswlN6HjCxpyoAgZpEsSMVg33gd5muDzwkzjyvj--C6Xtt3iE6CdvjtLgjA0_zqAIZtThuzl6T4hwUpUOFvfDzDzbdnhUtZXuS7vtC1fS_SiJVp7ImBmSXae-3qpEZpT9uvStQWYn666CZ2oqWWq35twmoLcLEZkyjd6RlJVkK51XUKqQu7IlAxRlklbcuqfkj3VAFAmNgI_OupzYF1tQb3hwlhsvoeYvK0uBaRXlpkw6A6-FKmQ_15hyD1qgTJjeaNXNaDKlBIiybhV44dKRmi707Fq_lFtvuJydFe-5uOC0dWZXKWYZ6PUYA5D1JoWyM3E1joJvdJrBFCcVDUsfuuKs0I91nWzhhQsyrgs0AvNZBGAJhgrnNEOznEKGkz-ONrack8GmGl6m85HOz1GOiJOLr6rRQrnyWTXul7Et0bsIToPK0dHubeDFHi67rASIURnAXZQm54g4Fw6k4l6os3zEiiD7wxWtDRiKUAZwRtv-UA4g_esyMRXSAqT4aJMl0JeSZGNivPL6UanxBbHk2Bt4grTL_VXpWut9Gq1GbO7o477e75hXGvlVAbYQ0Y5Or869NHABYP2XLtAQxYnOmURH3Q5GETabadOJPY6Pwt73vROg3xhssKM_KmQJHj0cQyuqLOQPZJIcHDsYQNLRMj-bk9UGo2Gjys52ogpziqJZCJOCcWUbUJoWBnWnpmlFaKIhdILVEBfzCedb9lNoJDAg-dQ6W13pCp6gBEGeY0UjqZXmB9zgrzNj8bfTeGq5EfXYP8MiK6EehL8WnVuaSEUOwCoKaM__Z44lchL_WmzkLzGJQZNwlnDtXnVF75sfhrx0Xqn3_vEHEeAMqthpHpLZS17cMX2cDfof86pCqnTjqQo50Tkyq1OxQk43GD3Fzs-E5ybW4EcSBOd8G1pCXHR25M3L-S1DwYmct-_mfrVZKavZ3xZfwN5888ZurAthFcye-KcjZ4AdEpyvJduxMTICNgBhbzAZ5_XcqarjuGATP6NGN2mojwSoPleIKAeblr8PzVUMj03PE6-zty_Ofg8W17wo4csuJZE7iieIxIKqTuF4jPfhVVRQw1wlWVB5pM8mXVCN8uFTbg60XfSbP0Jcsoh62-UwnoVDM6VxkjgCRnN_P23yn2kEqCTlLaWxQESzQCPzyOfVj0OqbnTeaqSbMmjms9sgTt0XBqc6X-_hwZItWhbRBkd8iJRVhJKIHasxvupj8bXgQb7N68a7WL5L6-52YGzm-stdIQLg5AM8OOvGQAVLzILP1vqpZv3ecKLfodbPT6ZPQ4hxMj9NNMJBCTjCNwclLwYlv5iQrwetyyV1GU562PY3xzty0?></g></svg>