<?plantuml 1.2026.0?><svg xmlns="http://www.w3.org/2000/svg" xmlns:xlink="http://www.w3.org/1999/xlink" contentStyleType="text/css" data-diagram-type="ACTIVITY" height="1500px" preserveAspectRatio="none" style="width:1421px;height:1500px;background:#FFFFFF;" version="1.1" viewBox="0 0 1421 1500" width="1421px" zoomAndPan="magnify"><title>Aircraft Turnaround Orchestration System
11.3 &#8212; Registro de uma tarefa</title><defs/><g><g class="title" data-source-line="2"><text fill="#000000" font-family="sans-serif" font-size="14" font-weight="bold" lengthAdjust="spacing" textLength="281.6133" x="568.4194" y="34.5332">Aircraft Turnaround Orchestration System</text><text fill="#000000" font-family="sans-serif" font-size="14" font-weight="bold" lengthAdjust="spacing" textLength="201.1748" x="608.6386" y="52.1426">11.3 &#8212; Registro de uma tarefa</text></g><rect fill="none" height="18.8672" style="stroke:none;stroke-width:1;" width="1360.452" x="15" y="68.0146"/><ellipse cx="262.3165" cy="101.8818" fill="#222222" rx="10" ry="10" style="stroke:#222222;stroke-width:1;"/><rect fill="#EEF4FA" height="57.7344" rx="12.5" ry="12.5" style="stroke:#34536E;stroke-width:0.5;" width="225.1367" x="149.7482" y="131.8818"/><text fill="#000000" font-family="sans-serif" font-size="15" lengthAdjust="spacing" textLength="205.1367" x="159.7482" y="157.4531">Consultar tarefa da sua equipe</text><text fill="#000000" font-family="sans-serif" font-size="15" lengthAdjust="spacing" textLength="138.3911" x="159.7482" y="176.3203">atribu&#237;da a si (UC14)</text><polygon fill="#EEF4FA" points="187.701,209.6162,336.932,209.6162,348.932,221.6162,336.932,233.6162,187.701,233.6162,175.701,221.6162,187.701,209.6162" style="stroke:#34536E;stroke-width:0.5;"/><text fill="#000000" font-family="sans-serif" font-size="15" lengthAdjust="spacing" textLength="149.231" x="187.701" y="227.7539">Marcar N&#227;o aplic&#225;vel?</text><text fill="#000000" font-family="sans-serif" font-size="15" lengthAdjust="spacing" textLength="31.6626" x="144.0385" y="218.3203">[sim]</text><text fill="#000000" font-family="sans-serif" font-size="15" lengthAdjust="spacing" textLength="33.3618" x="348.932" y="218.3203">[n&#227;o]</text><rect fill="#EEF4FA" height="57.7344" rx="12.5" ry="12.5" style="stroke:#34536E;stroke-width:0.5;" width="253.4082" x="21" y="243.6162"/><text fill="#000000" font-family="sans-serif" font-size="15" lengthAdjust="spacing" textLength="233.4082" x="31" y="269.1875">Solicitar marca&#231;&#227;o com justificativa</text><text fill="#000000" font-family="sans-serif" font-size="15" lengthAdjust="spacing" textLength="48.3398" x="31" y="288.0547">(UC18)</text><rect fill="#EEF4FA" height="38.8672" rx="12.5" ry="12.5" style="stroke:#34536E;stroke-width:0.5;" width="165.0415" x="294.4082" y="243.6162"/><text fill="#000000" font-family="sans-serif" font-size="15" lengthAdjust="spacing" textLength="145.0415" x="304.4082" y="269.1875">Solicitar in&#237;cio (UC15)</text><polygon fill="#EEF4FA" points="262.3165,307.3506,274.3165,319.3506,262.3165,331.3506,250.3165,319.3506,262.3165,307.3506" style="stroke:#34536E;stroke-width:0.5;"/><rect fill="#EEF4FA" height="38.8672" rx="12.5" ry="12.5" style="stroke:#34536E;stroke-width:0.5;" width="121.7188" x="201.4572" y="610.1563"/><text fill="#000000" font-family="sans-serif" font-size="15" lengthAdjust="spacing" textLength="101.7188" x="211.4572" y="635.7275">Executar tarefa</text><rect fill="#EEF4FA" height="76.6016" rx="12.5" ry="12.5" style="stroke:#34536E;stroke-width:0.5;" width="261.8164" x="131.4083" y="720.457"/><text fill="#000000" font-family="sans-serif" font-size="15" lengthAdjust="spacing" textLength="215.918" x="141.4083" y="746.0283">Registrar pausa com justificativa</text><text fill="#000000" font-family="sans-serif" font-size="15" lengthAdjust="spacing" textLength="241.8164" x="141.4083" y="764.8955">e c&#243;digo do impedimento, se houver</text><text fill="#000000" font-family="sans-serif" font-size="15" lengthAdjust="spacing" textLength="48.3398" x="141.4083" y="783.7627">(UC17)</text><path d="M377.7828,825.125 L377.7828,854.4258 L357.7828,858.4258 L377.7828,862.4258 L377.7828,891.7266 A0,0 0 0 0 377.7828,891.7266 L667.2594,891.7266 A0,0 0 0 0 667.2594,891.7266 L667.2594,835.125 L657.2594,825.125 L377.7828,825.125 A0,0 0 0 0 377.7828,825.125" fill="#FEFFDD" style="stroke:#181818;stroke-width:0.5;"/><path d="M657.2594,825.125 L657.2594,835.125 L667.2594,835.125 L657.2594,825.125" fill="#FEFFDD" style="stroke:#181818;stroke-width:0.5;"/><text fill="#000000" font-family="sans-serif" font-size="15" lengthAdjust="spacing" textLength="207.6123" x="383.7828" y="845.6963">Pausa: somente Em execu&#231;&#227;o.</text><text fill="#000000" font-family="sans-serif" font-size="15" lengthAdjust="spacing" textLength="202.6245" x="383.7828" y="864.5635">Retomada: somente Pausada.</text><text fill="#000000" font-family="sans-serif" font-size="15" lengthAdjust="spacing" textLength="268.4766" x="383.7828" y="883.4307">Cada registro aceito chama a vista 11.4.</text><rect fill="#EEF4FA" height="57.7344" rx="12.5" ry="12.5" style="stroke:#34536E;stroke-width:0.5;" width="190.9326" x="166.8502" y="829.5586"/><text fill="#000000" font-family="sans-serif" font-size="15" lengthAdjust="spacing" textLength="170.9326" x="176.8502" y="855.1299">Retomar quando poss&#237;vel</text><text fill="#000000" font-family="sans-serif" font-size="15" lengthAdjust="spacing" textLength="48.3398" x="176.8502" y="873.9971">(UC17)</text><polygon fill="#EEF4FA" points="195.6149,669.0234,329.0182,669.0234,341.0182,681.0234,329.0182,693.0234,195.6149,693.0234,183.6149,681.0234,195.6149,669.0234" style="stroke:#34536E;stroke-width:0.5;"/><text fill="#000000" font-family="sans-serif" font-size="15" lengthAdjust="spacing" textLength="31.6626" x="266.3165" y="708.5947">[sim]</text><text fill="#000000" font-family="sans-serif" font-size="15" lengthAdjust="spacing" textLength="133.4033" x="195.6149" y="687.1611">Necess&#225;rio pausar?</text><text fill="#000000" font-family="sans-serif" font-size="15" lengthAdjust="spacing" textLength="33.3618" x="341.0182" y="677.7275">[n&#227;o]</text><polygon fill="#EEF4FA" points="262.3165,911.7266,274.3165,923.7266,262.3165,935.7266,250.3165,923.7266,262.3165,911.7266" style="stroke:#34536E;stroke-width:0.5;"/><rect fill="#EEF4FA" height="57.7344" rx="12.5" ry="12.5" style="stroke:#34536E;stroke-width:0.5;" width="170.0732" x="177.2799" y="1007.1602"/><text fill="#000000" font-family="sans-serif" font-size="15" lengthAdjust="spacing" textLength="150.0732" x="187.2799" y="1032.7314">Ler e confirmar pontos</text><text fill="#000000" font-family="sans-serif" font-size="15" lengthAdjust="spacing" textLength="141.709" x="187.2799" y="1051.5986">com o celular (UC19)</text><polygon fill="#EEF4FA" points="144.3307,955.7266,380.3024,955.7266,392.3024,967.7266,380.3024,979.7266,144.3307,979.7266,132.3307,967.7266,144.3307,955.7266" style="stroke:#34536E;stroke-width:0.5;"/><text fill="#000000" font-family="sans-serif" font-size="15" lengthAdjust="spacing" textLength="31.6626" x="266.3165" y="995.2979">[sim]</text><text fill="#000000" font-family="sans-serif" font-size="15" lengthAdjust="spacing" textLength="235.9717" x="144.3307" y="973.8643">Tarefa possui pontos de QR Code?</text><text fill="#000000" font-family="sans-serif" font-size="15" lengthAdjust="spacing" textLength="33.3618" x="392.3024" y="964.4307">[n&#227;o]</text><polygon fill="#EEF4FA" points="262.3165,1084.8945,274.3165,1096.8945,262.3165,1108.8945,250.3165,1096.8945,262.3165,1084.8945" style="stroke:#34536E;stroke-width:0.5;"/><rect fill="#EEF4FA" height="38.8672" rx="12.5" ry="12.5" style="stroke:#34536E;stroke-width:0.5;" width="197.5684" x="163.5323" y="1128.8945"/><text fill="#000000" font-family="sans-serif" font-size="15" lengthAdjust="spacing" textLength="177.5684" x="173.5323" y="1154.4658">Solicitar conclus&#227;o (UC16)</text><polygon fill="#EEF4FA" points="262.3165,566.1563,274.3165,578.1563,262.3165,590.1563,250.3165,578.1563,262.3165,566.1563" style="stroke:#34536E;stroke-width:0.5;"/><line style="stroke:#000000;stroke-width:1.5;" x1="15" x2="15" y1="68.0146" y2="1488.2305"/><polygon fill="#EEF4FA" points="868.0765,351.3506,1198.2743,351.3506,1210.2743,363.3506,1198.2743,375.3506,868.0765,375.3506,856.0765,363.3506,868.0765,351.3506" style="stroke:#34536E;stroke-width:0.5;"/><text fill="#000000" font-family="sans-serif" font-size="15" lengthAdjust="spacing" textLength="330.1978" x="868.0765" y="369.4883">Registro v&#225;lido para atribui&#231;&#227;o, estado e modelo?</text><text fill="#000000" font-family="sans-serif" font-size="15" lengthAdjust="spacing" textLength="33.3618" x="822.7147" y="360.0547">[n&#227;o]</text><text fill="#000000" font-family="sans-serif" font-size="15" lengthAdjust="spacing" textLength="31.6626" x="1210.2743" y="360.0547">[sim]</text><rect fill="#EEF4FA" height="57.7344" rx="12.5" ry="12.5" style="stroke:#34536E;stroke-width:0.5;" width="241.7261" x="725.2135" y="385.3506"/><text fill="#000000" font-family="sans-serif" font-size="15" lengthAdjust="spacing" textLength="221.7261" x="735.2135" y="410.9219">Recusar registro; mostrar motivo;</text><text fill="#000000" font-family="sans-serif" font-size="15" lengthAdjust="spacing" textLength="167.5854" x="735.2135" y="429.7891">preservar estado anterior</text><ellipse cx="846.0765" cy="474.085" fill="none" rx="11" ry="11" style="stroke:#222222;stroke-width:1;"/><ellipse cx="846.0765" cy="474.085" fill="#222222" rx="6" ry="6" style="stroke:#222222;stroke-width:1;"/><rect fill="#EEF4FA" height="57.7344" rx="12.5" ry="12.5" style="stroke:#34536E;stroke-width:0.5;" width="249.2847" x="1095.632" y="385.3506"/><text fill="#000000" font-family="sans-serif" font-size="15" lengthAdjust="spacing" textLength="205.1074" x="1105.632" y="410.9219">Gravar autor, hor&#225;rio e estado;</text><text fill="#000000" font-family="sans-serif" font-size="15" lengthAdjust="spacing" textLength="229.2847" x="1105.632" y="429.7891">propagar e recalcular &#8212; vista 11.4</text><polygon fill="#EEF4FA" points="960.2189,505.085,1106.132,505.085,1118.132,517.085,1106.132,529.085,960.2189,529.085,948.2189,517.085,960.2189,505.085" style="stroke:#34536E;stroke-width:0.5;"/><text fill="#000000" font-family="sans-serif" font-size="15" lengthAdjust="spacing" textLength="33.3618" x="1037.1754" y="544.6563">[n&#227;o]</text><text fill="#000000" font-family="sans-serif" font-size="15" lengthAdjust="spacing" textLength="145.9131" x="960.2189" y="523.2227">Tarefa N&#227;o aplic&#225;vel?</text><text fill="#000000" font-family="sans-serif" font-size="15" lengthAdjust="spacing" textLength="31.6626" x="1118.132" y="513.7891">[sim]</text><ellipse cx="1171.7946" cy="517.085" fill="none" rx="11" ry="11" style="stroke:#222222;stroke-width:1;"/><ellipse cx="1171.7946" cy="517.085" fill="#222222" rx="6" ry="6" style="stroke:#222222;stroke-width:1;"/><polygon fill="#EEF4FA" points="845.983,1187.7617,1220.3678,1187.7617,1232.3678,1199.7617,1220.3678,1211.7617,845.983,1211.7617,833.983,1199.7617,845.983,1187.7617" style="stroke:#34536E;stroke-width:0.5;"/><text fill="#000000" font-family="sans-serif" font-size="15" lengthAdjust="spacing" textLength="374.3848" x="845.983" y="1205.8994">Em execu&#231;&#227;o, atribu&#237;da e todos os pontos confirmados?</text><text fill="#000000" font-family="sans-serif" font-size="15" lengthAdjust="spacing" textLength="31.6626" x="802.3204" y="1196.4658">[sim]</text><text fill="#000000" font-family="sans-serif" font-size="15" lengthAdjust="spacing" textLength="33.3618" x="1232.3678" y="1196.4658">[n&#227;o]</text><rect fill="#EEF4FA" height="38.8672" rx="12.5" ry="12.5" style="stroke:#34536E;stroke-width:0.5;" width="243.4473" x="702.2594" y="1221.7617"/><text fill="#000000" font-family="sans-serif" font-size="15" lengthAdjust="spacing" textLength="223.4473" x="712.2594" y="1247.333">Gravar Conclu&#237;da, autor e hor&#225;rio</text><rect fill="#EEF4FA" height="57.7344" rx="12.5" ry="12.5" style="stroke:#34536E;stroke-width:0.5;" width="256.001" x="1114.3673" y="1221.7617"/><text fill="#000000" font-family="sans-serif" font-size="15" lengthAdjust="spacing" textLength="235.0854" x="1124.3673" y="1247.333">Recusar conclus&#227;o; mostrar motivo</text><text fill="#000000" font-family="sans-serif" font-size="15" lengthAdjust="spacing" textLength="236.001" x="1124.3673" y="1266.2002">e pontos pendentes; manter estado</text><polygon fill="#EEF4FA" points="1033.1754,1285.4961,1045.1754,1297.4961,1033.1754,1309.4961,1021.1754,1297.4961,1033.1754,1285.4961" style="stroke:#34536E;stroke-width:0.5;"/><polygon fill="#EEF4FA" points="960.629,1329.4961,1105.7218,1329.4961,1117.7218,1341.4961,1105.7218,1353.4961,960.629,1353.4961,948.629,1341.4961,960.629,1329.4961" style="stroke:#34536E;stroke-width:0.5;"/><text fill="#000000" font-family="sans-serif" font-size="15" lengthAdjust="spacing" textLength="33.3618" x="1037.1754" y="1369.0674">[n&#227;o]</text><text fill="#000000" font-family="sans-serif" font-size="15" lengthAdjust="spacing" textLength="145.0928" x="960.629" y="1347.6338">Conclus&#227;o recusada?</text><text fill="#000000" font-family="sans-serif" font-size="15" lengthAdjust="spacing" textLength="31.6626" x="1117.7218" y="1338.2002">[sim]</text><rect fill="#EEF4FA" height="57.7344" rx="12.5" ry="12.5" style="stroke:#34536E;stroke-width:0.5;" width="290.1392" x="888.1058" y="1388.4961"/><text fill="#000000" font-family="sans-serif" font-size="15" lengthAdjust="spacing" textLength="264.2798" x="898.1058" y="1414.0674">Propagar sucessoras; atualizar marcos;</text><text fill="#000000" font-family="sans-serif" font-size="15" lengthAdjust="spacing" textLength="270.1392" x="898.1058" y="1432.9346">recalcular e atualizar painel &#8212; vista 11.4</text><ellipse cx="1033.1754" cy="1477.2305" fill="none" rx="11" ry="11" style="stroke:#222222;stroke-width:1;"/><ellipse cx="1033.1754" cy="1477.2305" fill="#222222" rx="6" ry="6" style="stroke:#222222;stroke-width:1;"/><line style="stroke:#000000;stroke-width:1.5;" x1="696.2594" x2="696.2594" y1="68.0146" y2="1488.2305"/><line style="stroke:#000000;stroke-width:1.5;" x1="1374.3683" x2="1374.3683" y1="68.0146" y2="1488.2305"/><line style="stroke:#181818;stroke-width:1;" x1="262.3165" x2="262.3165" y1="111.8818" y2="131.8818"/><polygon fill="#181818" points="258.3165,121.8818,262.3165,131.8818,266.3165,121.8818,262.3165,125.8818" style="stroke:#181818;stroke-width:1;"/><line style="stroke:#181818;stroke-width:1;" x1="175.701" x2="147.7041" y1="221.6162" y2="221.6162"/><line style="stroke:#181818;stroke-width:1;" x1="147.7041" x2="147.7041" y1="221.6162" y2="243.6162"/><polygon fill="#181818" points="143.7041,233.6162,147.7041,243.6162,151.7041,233.6162,147.7041,237.6162" style="stroke:#181818;stroke-width:1;"/><line style="stroke:#181818;stroke-width:1;" x1="348.932" x2="376.929" y1="221.6162" y2="221.6162"/><line style="stroke:#181818;stroke-width:1;" x1="376.929" x2="376.929" y1="221.6162" y2="243.6162"/><polygon fill="#181818" points="372.929,233.6162,376.929,243.6162,380.929,233.6162,376.929,237.6162" style="stroke:#181818;stroke-width:1;"/><line style="stroke:#181818;stroke-width:1;" x1="147.7041" x2="147.7041" y1="301.3506" y2="319.3506"/><line style="stroke:#181818;stroke-width:1;" x1="147.7041" x2="250.3165" y1="319.3506" y2="319.3506"/><polygon fill="#181818" points="240.3165,315.3506,250.3165,319.3506,240.3165,323.3506,244.3165,319.3506" style="stroke:#181818;stroke-width:1;"/><line style="stroke:#181818;stroke-width:1;" x1="376.929" x2="376.929" y1="282.4834" y2="319.3506"/><line style="stroke:#181818;stroke-width:1;" x1="376.929" x2="274.3165" y1="319.3506" y2="319.3506"/><polygon fill="#181818" points="284.3165,315.3506,274.3165,319.3506,284.3165,323.3506,280.3165,319.3506" style="stroke:#181818;stroke-width:1;"/><line style="stroke:#181818;stroke-width:1;" x1="262.3165" x2="262.3165" y1="189.6162" y2="209.6162"/><polygon fill="#181818" points="258.3165,199.6162,262.3165,209.6162,266.3165,199.6162,262.3165,203.6162" style="stroke:#181818;stroke-width:1;"/><line style="stroke:#181818;stroke-width:1;" x1="262.3165" x2="262.3165" y1="797.0586" y2="829.5586"/><polygon fill="#181818" points="258.3165,819.5586,262.3165,829.5586,266.3165,819.5586,262.3165,823.5586" style="stroke:#181818;stroke-width:1;"/><line style="stroke:#181818;stroke-width:1;" x1="262.3165" x2="262.3165" y1="693.0234" y2="720.457"/><polygon fill="#181818" points="258.3165,710.457,262.3165,720.457,266.3165,710.457,262.3165,714.457" style="stroke:#181818;stroke-width:1;"/><line style="stroke:#181818;stroke-width:1;" x1="341.0182" x2="677.2594" y1="681.0234" y2="681.0234"/><polygon fill="#181818" points="673.2594,799.5586,677.2594,809.5586,681.2594,799.5586,677.2594,803.5586" style="stroke:#181818;stroke-width:1;"/><line style="stroke:#181818;stroke-width:1;" x1="677.2594" x2="677.2594" y1="681.0234" y2="923.7266"/><line style="stroke:#181818;stroke-width:1;" x1="677.2594" x2="274.3165" y1="923.7266" y2="923.7266"/><polygon fill="#181818" points="284.3165,919.7266,274.3165,923.7266,284.3165,927.7266,280.3165,923.7266" style="stroke:#181818;stroke-width:1;"/><line style="stroke:#181818;stroke-width:1;" x1="262.3165" x2="262.3165" y1="887.293" y2="911.7266"/><polygon fill="#181818" points="258.3165,901.7266,262.3165,911.7266,266.3165,901.7266,262.3165,905.7266" style="stroke:#181818;stroke-width:1;"/><line style="stroke:#181818;stroke-width:1;" x1="262.3165" x2="262.3165" y1="649.0234" y2="669.0234"/><polygon fill="#181818" points="258.3165,659.0234,262.3165,669.0234,266.3165,659.0234,262.3165,663.0234" style="stroke:#181818;stroke-width:1;"/><line style="stroke:#181818;stroke-width:1;" x1="262.3165" x2="262.3165" y1="979.7266" y2="1007.1602"/><polygon fill="#181818" points="258.3165,997.1602,262.3165,1007.1602,266.3165,997.1602,262.3165,1001.1602" style="stroke:#181818;stroke-width:1;"/><line style="stroke:#181818;stroke-width:1;" x1="392.3024" x2="404.3024" y1="967.7266" y2="967.7266"/><polygon fill="#181818" points="400.3024,1026.0273,404.3024,1036.0273,408.3024,1026.0273,404.3024,1030.0273" style="stroke:#181818;stroke-width:1;"/><line style="stroke:#181818;stroke-width:1;" x1="404.3024" x2="404.3024" y1="967.7266" y2="1096.8945"/><line style="stroke:#181818;stroke-width:1;" x1="404.3024" x2="274.3165" y1="1096.8945" y2="1096.8945"/><polygon fill="#181818" points="284.3165,1092.8945,274.3165,1096.8945,284.3165,1100.8945,280.3165,1096.8945" style="stroke:#181818;stroke-width:1;"/><line style="stroke:#181818;stroke-width:1;" x1="262.3165" x2="262.3165" y1="1064.8945" y2="1084.8945"/><polygon fill="#181818" points="258.3165,1074.8945,262.3165,1084.8945,266.3165,1074.8945,262.3165,1078.8945" style="stroke:#181818;stroke-width:1;"/><line style="stroke:#181818;stroke-width:1;" x1="262.3165" x2="262.3165" y1="935.7266" y2="955.7266"/><polygon fill="#181818" points="258.3165,945.7266,262.3165,955.7266,266.3165,945.7266,262.3165,949.7266" style="stroke:#181818;stroke-width:1;"/><line style="stroke:#181818;stroke-width:1;" x1="262.3165" x2="262.3165" y1="1108.8945" y2="1128.8945"/><polygon fill="#181818" points="258.3165,1118.8945,262.3165,1128.8945,266.3165,1118.8945,262.3165,1122.8945" style="stroke:#181818;stroke-width:1;"/><line style="stroke:#181818;stroke-width:1;" x1="262.3165" x2="262.3165" y1="590.1563" y2="610.1563"/><polygon fill="#181818" points="258.3165,600.1563,262.3165,610.1563,266.3165,600.1563,262.3165,604.1563" style="stroke:#181818;stroke-width:1;"/><line style="stroke:#181818;stroke-width:1;" x1="846.0765" x2="846.0765" y1="443.085" y2="463.085"/><polygon fill="#181818" points="842.0765,453.085,846.0765,463.085,850.0765,453.085,846.0765,457.085" style="stroke:#181818;stroke-width:1;"/><line style="stroke:#181818;stroke-width:1;" x1="856.0765" x2="846.0765" y1="363.3506" y2="363.3506"/><line style="stroke:#181818;stroke-width:1;" x1="846.0765" x2="846.0765" y1="363.3506" y2="385.3506"/><polygon fill="#181818" points="842.0765,375.3506,846.0765,385.3506,850.0765,375.3506,846.0765,379.3506" style="stroke:#181818;stroke-width:1;"/><line style="stroke:#181818;stroke-width:1;" x1="1210.2743" x2="1220.2743" y1="363.3506" y2="363.3506"/><line style="stroke:#181818;stroke-width:1;" x1="1220.2743" x2="1220.2743" y1="363.3506" y2="385.3506"/><polygon fill="#181818" points="1216.2743,375.3506,1220.2743,385.3506,1224.2743,375.3506,1220.2743,379.3506" style="stroke:#181818;stroke-width:1;"/><line style="stroke:#181818;stroke-width:1;" x1="1220.2743" x2="1220.2743" y1="443.085" y2="490.085"/><line style="stroke:#181818;stroke-width:1;" x1="1220.2743" x2="1033.1754" y1="490.085" y2="490.085"/><line style="stroke:#181818;stroke-width:1;" x1="1033.1754" x2="1033.1754" y1="490.085" y2="505.085"/><polygon fill="#181818" points="1029.1754,495.085,1033.1754,505.085,1037.1754,495.085,1033.1754,499.085" style="stroke:#181818;stroke-width:1;"/><line style="stroke:#181818;stroke-width:1;" x1="1033.1754" x2="1033.1754" y1="529.085" y2="551.1563"/><line style="stroke:#181818;stroke-width:1;" x1="1033.1754" x2="262.3165" y1="551.1563" y2="551.1563"/><line style="stroke:#181818;stroke-width:1;" x1="262.3165" x2="262.3165" y1="551.1563" y2="566.1563"/><polygon fill="#181818" points="258.3165,556.1563,262.3165,566.1563,266.3165,556.1563,262.3165,560.1563" style="stroke:#181818;stroke-width:1;"/><line style="stroke:#181818;stroke-width:1;" x1="1118.132" x2="1160.7946" y1="517.085" y2="517.085"/><polygon fill="#181818" points="1150.7946,513.085,1160.7946,517.085,1150.7946,521.085,1154.7946,517.085" style="stroke:#181818;stroke-width:1;"/><line style="stroke:#181818;stroke-width:1;" x1="833.983" x2="823.983" y1="1199.7617" y2="1199.7617"/><line style="stroke:#181818;stroke-width:1;" x1="823.983" x2="823.983" y1="1199.7617" y2="1221.7617"/><polygon fill="#181818" points="819.983,1211.7617,823.983,1221.7617,827.983,1211.7617,823.983,1215.7617" style="stroke:#181818;stroke-width:1;"/><line style="stroke:#181818;stroke-width:1;" x1="1232.3678" x2="1242.3678" y1="1199.7617" y2="1199.7617"/><line style="stroke:#181818;stroke-width:1;" x1="1242.3678" x2="1242.3678" y1="1199.7617" y2="1221.7617"/><polygon fill="#181818" points="1238.3678,1211.7617,1242.3678,1221.7617,1246.3678,1211.7617,1242.3678,1215.7617" style="stroke:#181818;stroke-width:1;"/><line style="stroke:#181818;stroke-width:1;" x1="823.983" x2="823.983" y1="1260.6289" y2="1297.4961"/><line style="stroke:#181818;stroke-width:1;" x1="823.983" x2="1021.1754" y1="1297.4961" y2="1297.4961"/><polygon fill="#181818" points="1011.1754,1293.4961,1021.1754,1297.4961,1011.1754,1301.4961,1015.1754,1297.4961" style="stroke:#181818;stroke-width:1;"/><line style="stroke:#181818;stroke-width:1;" x1="1242.3678" x2="1242.3678" y1="1279.4961" y2="1297.4961"/><line style="stroke:#181818;stroke-width:1;" x1="1242.3678" x2="1045.1754" y1="1297.4961" y2="1297.4961"/><polygon fill="#181818" points="1055.1754,1293.4961,1045.1754,1297.4961,1055.1754,1301.4961,1051.1754,1297.4961" style="stroke:#181818;stroke-width:1;"/><line style="stroke:#181818;stroke-width:1;" x1="1033.1754" x2="1033.1754" y1="1309.4961" y2="1329.4961"/><polygon fill="#181818" points="1029.1754,1319.4961,1033.1754,1329.4961,1037.1754,1319.4961,1033.1754,1323.4961" style="stroke:#181818;stroke-width:1;"/><line style="stroke:#181818;stroke-width:1;" x1="1033.1754" x2="1033.1754" y1="1353.4961" y2="1388.4961"/><polygon fill="#181818" points="1029.1754,1378.4961,1033.1754,1388.4961,1037.1754,1378.4961,1033.1754,1382.4961" style="stroke:#181818;stroke-width:1;"/><line style="stroke:#181818;stroke-width:1;" x1="1033.1754" x2="1033.1754" y1="1446.2305" y2="1466.2305"/><polygon fill="#181818" points="1029.1754,1456.2305,1033.1754,1466.2305,1037.1754,1456.2305,1033.1754,1460.2305" style="stroke:#181818;stroke-width:1;"/><line style="stroke:#181818;stroke-width:1;" x1="262.3165" x2="262.3165" y1="331.3506" y2="336.3506"/><line style="stroke:#181818;stroke-width:1;" x1="262.3165" x2="1033.1754" y1="336.3506" y2="336.3506"/><line style="stroke:#181818;stroke-width:1;" x1="1033.1754" x2="1033.1754" y1="336.3506" y2="351.3506"/><polygon fill="#181818" points="1029.1754,341.3506,1033.1754,351.3506,1037.1754,341.3506,1033.1754,345.3506" style="stroke:#181818;stroke-width:1;"/><line style="stroke:#181818;stroke-width:1;" x1="262.3165" x2="262.3165" y1="1167.7617" y2="1172.7617"/><line style="stroke:#181818;stroke-width:1;" x1="262.3165" x2="1033.1754" y1="1172.7617" y2="1172.7617"/><line style="stroke:#181818;stroke-width:1;" x1="1033.1754" x2="1033.1754" y1="1172.7617" y2="1187.7617"/><polygon fill="#181818" points="1029.1754,1177.7617,1033.1754,1187.7617,1037.1754,1177.7617,1033.1754,1181.7617" style="stroke:#181818;stroke-width:1;"/><line style="stroke:#181818;stroke-width:1;" x1="1117.7218" x2="1395.452" y1="1341.4961" y2="1341.4961"/><polygon fill="#181818" points="1391.452,966.3594,1395.452,956.3594,1399.452,966.3594,1395.452,962.3594" style="stroke:#181818;stroke-width:1;"/><line style="stroke:#181818;stroke-width:1;" x1="1395.452" x2="1395.452" y1="578.1563" y2="1341.4961"/><line style="stroke:#181818;stroke-width:1;" x1="1395.452" x2="274.3165" y1="578.1563" y2="578.1563"/><polygon fill="#181818" points="284.3165,574.1563,274.3165,578.1563,284.3165,582.1563,280.3165,578.1563" style="stroke:#181818;stroke-width:1;"/><text fill="#000000" font-family="sans-serif" font-size="15" lengthAdjust="spacing" textLength="170.9326" x="270.1634" y="83.5859">Operador de Solo/Rampa</text><text fill="#000000" font-family="sans-serif" font-size="15" lengthAdjust="spacing" textLength="117.561" x="976.5333" y="83.5859">Motor de Eventos</text><?plantuml-src XLNBRXDP4DtxAmhD9f4iHb4Ic8aN22m78K5WOeRDc4NHNROBkcyrzs46bCLynFn0D8jPPJMVu3_XIwRgTjjkWYCaItRthSSvfqvTtsiyBcg45EWD-SW5Li_c86uGELO4ZzaN7kSHNYVlq4jo9RpqnP92z1XP74m_XqZrp1qTtJ-6ht_z3PUqO3qLA0cILexeQOw3y85TWnvhU8V5XqKkDPPAF7nQSgJUUQdXgOhduk85rWHJT65AdkVxOwRyXU3ej7SObbZA9tOBc6CL-gMnYBpY-Fd9BGW_JIRd9-UFzqMABybtKSSdfySF9eEhbmrvRU6DubIFVhx4ki6hGL2kSN0s5XSK7FgEEvG88I7GnyGDpHn6p-_I-aPVwm73mU_ZevF3qO3dSF02VQ695-j_1B2fk5XVhwXwT0XnIGuE_WXSlpqS09nfNoxOcjIMilxNCWgfuNqAaUSwI2M0CsV5Vz7Yf4feljEmsmNOhMyAbepZr49TgM9VlP3OKfoio4K9LndWThohzNN5fO3f1IqbpYY6eEvGUO2Wbf8gsQ7VTR-a8WNjxRjo8uqrJoaTKU0ochd6Ko2_qbTTFNHHRI1-f0L2b6R3QQl9KuyMZac13s4fVdsjyOgZBP1hIeCBAwcTrUj5glJ1RBjI60ZgufED0CRsTJl07uwZ3wSZsQbubrSyDOHHK--CK4AJFrMcdP6CkA6we892QCarQ3f-ZoXhdBNLz1oqpnq4nVg_aXUwhG9SDrHoRSCUWb9PIbgHRotqy72qAHf57GSV4pgRlYYG6zNasp0dKHNcnJBcHu1NXk0CWbXvjLGDPDooOUvtCMtfiXUMiqhS18przzOnkgB4KJs_nDeMQJV0Dbprpp3quRRtsz6qMdOJDXw9zSkSRfFuxHB6wjwzmZudCr0XRixUj6YpPiu4La1KPLUP7hzcFUxgtzj1BLPKAPZFBEz1pjkpWYteR-GRGkz28OXIAWFzT5msCFNjNZBTqemp0AinR1S8QBj1-pZqTdY7_VOMcy4w68sIjfa6ZScBl5dAhHxjHjZVWVxn78ntWlZSfqI5ps43tcQxmtFsQhFO8TbkY4TjX35XnL-wErA2NW2zhQVUUOFigFhk8h2r_Xy0?></g></svg>